<svg width="70" height="70" viewBox="0 0 70 70" fill="none" xmlns="http://www.w3.org/2000/svg">
<path d="M45.9375 6.5625V12.2194L37.1875 20.9694V2.1875H32.8125V20.9694L24.0625 12.2194V6.5625H19.6875V41.5625C19.6936 45.241 21.023 48.7946 23.4328 51.5739C25.8426 54.3532 29.1719 56.1727 32.8125 56.7V65.625H37.1875V56.7C40.8281 56.1727 44.1574 54.3532 46.5672 51.5739C48.977 48.7946 50.3064 45.241 50.3125 41.5625V6.5625H45.9375ZM32.8125 52.2791C30.3439 51.7718 28.1257 50.4289 26.5318 48.4768C24.9379 46.5247 24.0658 44.0827 24.0625 41.5625V35.9056L32.8125 44.6556V52.2791ZM32.8125 38.4694L24.0625 29.7194V18.4056L32.8125 27.1556V38.4694ZM37.1875 27.1556L45.9375 18.4056V29.7194L37.1875 38.4694V27.1556ZM37.1875 52.2791V44.6556L45.9375 35.9056V41.5625C45.9342 44.0827 45.0621 46.5247 43.4682 48.4768C41.8743 50.4289 39.6561 51.7718 37.1875 52.2791Z" />
</svg>
