<svg width="70" height="70" viewBox="0 0 70 70" fill="none" xmlns="http://www.w3.org/2000/svg">
<path fill-rule="evenodd" clip-rule="evenodd" d="M30.7096 10.9667C26.775 12.4017 23.6892 15.7573 22.4569 19.9704C20.268 21.0933 18.9584 22.5167 18.9584 24.0625C18.9584 25.8096 20.6267 27.3977 23.348 28.5731C23.2689 30.1523 23.5117 31.7311 24.0616 33.2136C24.6115 34.6961 25.457 36.0514 26.5468 37.197C27.6366 38.3427 28.9479 39.2549 30.401 39.8782C31.8542 40.5015 33.4189 40.8229 35 40.8229C36.5812 40.8229 38.1459 40.5015 39.5991 39.8782C41.0522 39.2549 42.3635 38.3427 43.4533 37.197C44.5431 36.0514 45.3886 34.6961 45.9385 33.2136C46.4884 31.7311 46.7312 30.1523 46.6521 28.5731C49.3734 27.3977 51.0417 25.8096 51.0417 24.0625C51.0417 22.5152 49.7321 21.0933 47.5417 19.9704C46.3094 15.7558 43.225 12.4017 39.2905 10.9652C39.1337 10.3327 38.7697 9.77081 38.2564 9.3693C37.743 8.9678 37.1101 8.74977 36.4584 8.75H33.5417C32.8898 8.74985 32.2567 8.96809 31.7434 9.36988C31.23 9.77166 30.8661 10.3338 30.7096 10.9667ZM32.0834 17.5C32.4701 17.5 32.8411 17.3464 33.1146 17.0729C33.3881 16.7994 33.5417 16.4284 33.5417 16.0417V11.6667H36.4584V16.0417C36.4584 16.4284 36.612 16.7994 36.8855 17.0729C37.159 17.3464 37.5299 17.5 37.9167 17.5C38.3035 17.5 38.6744 17.3464 38.9479 17.0729C39.2214 16.7994 39.375 16.4284 39.375 16.0417V14.1779C41.6894 15.3592 43.5575 17.4635 44.5157 20.0929C44.5115 20.1099 44.5076 20.1269 44.504 20.144C44.4313 20.2011 44.3548 20.2533 44.275 20.3C43.858 20.5479 43.1696 20.8192 42.2159 21.0671C40.3303 21.5585 37.7228 21.875 35 21.875C32.2773 21.875 29.6698 21.5585 27.7842 21.0671C26.8305 20.8192 26.1421 20.5479 25.725 20.3C25.6452 20.2533 25.5687 20.2011 25.4961 20.144L25.4932 20.1308C25.4905 20.1181 25.4876 20.1055 25.4844 20.0929C26.4425 17.4635 28.3107 15.3577 30.625 14.1779V16.0417C30.625 16.4284 30.7787 16.7994 31.0522 17.0729C31.3257 17.3464 31.6966 17.5 32.0834 17.5ZM23.835 22.5429L23.7869 22.5662C22.9017 23.0198 22.3665 23.4515 22.085 23.7737C22.0044 23.8598 21.9366 23.9571 21.8838 24.0625C21.9144 24.1325 22.0034 24.2842 22.2469 24.5204C22.7034 24.9623 23.5171 25.4946 24.7611 26.0035C27.2344 27.0156 30.854 27.7083 35 27.7083C39.1461 27.7083 42.7657 27.0156 45.2375 26.0021C46.483 25.4946 47.2967 24.9623 47.7532 24.5204C47.9967 24.2842 48.0857 24.1325 48.1163 24.0625C48.0635 23.9571 47.9957 23.8598 47.915 23.7737C47.6336 23.4515 47.0984 23.0198 46.2132 22.5662L46.165 22.5429C46.037 22.6366 45.9047 22.7242 45.7684 22.8054C45.0144 23.2546 44.0257 23.6104 42.9494 23.8904C40.7765 24.4562 37.9167 24.7917 35 24.7917C32.0834 24.7917 29.2236 24.4562 27.0507 23.8904C25.9744 23.6104 24.9857 23.2546 24.2317 22.804C24.0954 22.7228 23.963 22.6352 23.835 22.5415V22.5429ZM48.1309 24.1033L48.125 24.0917L48.128 24.1062L48.1309 24.1033ZM48.1309 24.0187C48.1294 24.0187 48.128 24.0231 48.1265 24.0333C48.1277 24.0295 48.1287 24.0256 48.1294 24.0217V24.0173L48.1309 24.0187ZM21.8721 24.0275L21.8707 24.0187L21.8736 24.0333V24.0275H21.8721ZM21.8721 24.0975V24.0902V24.0946L21.8707 24.1033L21.8721 24.0975ZM43.7413 29.5662C41.2271 30.2371 38.223 30.625 35 30.625C31.7771 30.625 28.773 30.2356 26.2588 29.5662C26.3595 31.8169 27.3245 33.942 28.9528 35.499C30.581 37.0561 32.7471 37.925 35 37.925C37.253 37.925 39.4191 37.0561 41.0473 35.499C42.6756 33.942 43.6406 31.8169 43.7413 29.5662Z" />
<path fill-rule="evenodd" clip-rule="evenodd" d="M50.5823 38.7828C50.664 38.5258 50.6728 38.2511 50.6078 37.9894C50.5427 37.7276 50.4064 37.489 50.2139 37.3001C50.0213 37.1112 49.7802 36.9794 49.5172 36.9194C49.2543 36.8593 48.9799 36.8733 48.7244 36.9599C47.034 37.5346 45.5402 38.575 44.4149 39.9612C43.2896 41.3474 42.5785 43.0231 42.3636 44.7956C42.1486 46.568 42.4384 48.3652 43.1996 49.9802C43.9609 51.5952 45.1627 52.9625 46.6667 53.9247V59.7916C46.6667 60.1783 46.8203 60.5493 47.0938 60.8228C47.3673 61.0963 47.7383 61.2499 48.125 61.2499H55.4167C55.8035 61.2499 56.1744 61.0963 56.4479 60.8228C56.7214 60.5493 56.875 60.1783 56.875 59.7916V53.9262C58.3799 52.9642 59.5824 51.5968 60.3443 49.9814C61.1061 48.3661 61.3962 46.5683 61.1812 44.7953C60.9662 43.0223 60.2548 41.346 59.1289 39.9596C58.003 38.5731 56.5085 37.5328 54.8173 36.9584C54.5617 36.8717 54.2871 36.8576 54.024 36.9177C53.7608 36.9778 53.5195 37.1098 53.3269 37.2989C53.1344 37.488 52.998 37.7268 52.9331 37.9888C52.8683 38.2508 52.8773 38.5257 52.9594 38.7828C52.9721 38.8221 52.9828 38.862 52.9915 38.9024L53.8038 42.6941C53.868 42.9968 53.8638 43.3101 53.7914 43.611C53.719 43.9119 53.5804 44.1929 53.3856 44.4334C53.1907 44.6738 52.9447 44.8678 52.6653 45.001C52.3859 45.1342 52.0804 45.2033 51.7709 45.2033C51.4614 45.2033 51.1558 45.1342 50.8764 45.001C50.5971 44.8678 50.351 44.6738 50.1562 44.4334C49.9613 44.1929 49.8227 43.9119 49.7503 43.611C49.678 43.3101 49.6737 42.9968 49.7379 42.6941L50.5502 38.9024C50.559 38.862 50.5697 38.8221 50.5823 38.7828ZM56.6548 42.083L56.509 41.3947C57.218 42.1338 57.7442 43.0286 58.0454 44.0075C58.3467 44.9864 58.4146 46.0222 58.2438 47.032C58.073 48.0419 57.6682 48.9977 57.0619 49.8231C56.4555 50.6485 55.6643 51.3205 54.7517 51.7853C54.5035 51.9119 54.2968 52.1068 54.1559 52.3472C54.0151 52.5875 53.946 52.8632 53.9569 53.1416L53.9584 53.2291V58.3332H49.5834V53.2291V53.2174L49.5848 53.1416C49.5959 52.8634 49.527 52.5878 49.3864 52.3475C49.2458 52.1071 49.0394 51.9121 48.7915 51.7853C47.8789 51.3205 47.0877 50.6485 46.4813 49.8231C45.8749 48.9977 45.4702 48.0419 45.2994 47.032C45.1286 46.0222 45.1965 44.9864 45.4978 44.0075C45.799 43.0286 46.3252 42.1338 47.0342 41.3947L46.8869 42.083C46.7309 42.8113 46.7397 43.5651 46.9127 44.2895C47.0857 45.0139 47.4184 45.6904 47.8866 46.2696C48.3549 46.8487 48.9467 47.3159 49.6187 47.6368C50.2908 47.9577 51.0261 48.1242 51.7709 48.1242C52.5156 48.1242 53.2509 47.9577 53.923 47.6368C54.5951 47.3159 55.1869 46.8487 55.6551 46.2696C56.1233 45.6904 56.4561 45.0139 56.6291 44.2895C56.802 43.5651 56.8108 42.8113 56.6548 42.083Z" />
<path fill-rule="evenodd" clip-rule="evenodd" d="M26.7648 41.72L33.5417 46.9904V52.3498C33.8406 52.4256 34.3073 52.5 35 52.5C35.6927 52.5 36.1594 52.4271 36.4583 52.3498V46.6666L39.375 44.4791V61.25H8.75V52.5C8.75 47.161 18.2583 43.3518 26.7648 41.72ZM21.1094 52.8908L30.625 51.3056V58.3333H18.9583V46.9291C20.5556 46.316 22.1868 45.795 23.8438 45.3687L21.1094 52.8908ZM11.6667 58.3333H16.0417V48.2402L15.9337 48.2971C14.3821 49.1196 13.2475 49.9581 12.5329 50.7471C11.8329 51.5229 11.6667 52.096 11.6667 52.5V58.3333ZM35 55.4166C34.4488 55.4166 33.9646 55.3802 33.5417 55.3189V58.3333H36.4583V55.3189C36.0354 55.3802 35.5513 55.4166 35 55.4166ZM30.5521 48.3598L26.8946 45.516L25.5573 49.1925L30.5521 48.3612V48.3598Z" />
</svg>
