<svg width="70" height="70" viewBox="0 0 70 70" fill="none" xmlns="http://www.w3.org/2000/svg">
<path d="M35 0.0546875C15.7336 0.0546875 0.0546875 15.7336 0.0546875 35C0.0546875 54.2664 15.7336 69.9398 35 69.9398C54.2664 69.9398 69.9398 54.2664 69.9398 35C69.9453 15.7336 54.2664 0.0546875 35 0.0546875ZM35 66.5711C17.5875 66.5711 3.42891 52.407 3.42891 35C3.42891 17.593 17.5875 3.42891 35 3.42891C52.407 3.42891 66.5711 17.593 66.5711 35.0055C66.5711 52.4125 52.4125 66.5711 35 66.5711V66.5711Z" />
<path d="M41.9289 17.9757L37.5211 25.6046V6.19604H32.4844V30.3023C30.8055 31.2046 29.6516 32.9546 29.6516 34.9945C29.6516 37.9531 32.0414 40.3429 35 40.3429C37.9531 40.3429 40.3484 37.9476 40.3484 34.9945C40.3484 33.9609 40.0422 33.0039 39.5281 32.1835L46.282 20.4914L41.9289 17.9757ZM34.2344 36.8703C34.2234 36.8648 34.2125 36.8593 34.2016 36.8593C33.8898 36.7226 33.6273 36.5093 33.4195 36.2468C33.1516 35.9023 32.982 35.4757 32.982 35.0054C32.982 33.8953 33.8844 32.9929 35 32.9929C36.1156 32.9929 37.018 33.8953 37.018 35.0054C37.018 35.8367 36.5148 36.5476 35.793 36.8593C35.782 36.8593 35.7711 36.8648 35.7602 36.8703C35.525 36.9632 35.268 37.0179 35 37.0179C34.8961 37.0179 34.8086 37.0015 34.7156 36.9906C34.5516 36.9632 34.3875 36.9304 34.2344 36.8703V36.8703Z" />
<path d="M62.3055 37.0179C63.4169 37.0179 64.318 36.1169 64.318 35.0054C64.318 33.8939 63.4169 32.9929 62.3055 32.9929C61.194 32.9929 60.293 33.8939 60.293 35.0054C60.293 36.1169 61.194 37.0179 62.3055 37.0179Z" />
<path d="M59.656 23.1013C60.6188 22.546 60.9479 21.3132 60.3911 20.3478C59.8342 19.3824 58.6023 19.0499 57.6395 19.6052C56.6767 20.1605 56.3476 21.3933 56.9044 22.3588C57.4613 23.3242 58.6932 23.6566 59.656 23.1013Z" />
<path d="M50.3974 12.3572C50.953 11.3946 50.623 10.1638 49.6604 9.60817C48.6978 9.05255 47.467 9.3825 46.9114 10.3451C46.3558 11.3078 46.6857 12.5386 47.6483 13.0942C48.611 13.6498 49.8418 13.3198 50.3974 12.3572Z" />
<path d="M22.352 13.0963C23.3147 12.5407 23.6447 11.3099 23.0891 10.3473C22.5335 9.38464 21.3027 9.05465 20.3401 9.61023C19.3774 10.1658 19.0474 11.3966 19.603 12.3592C20.1586 13.3219 21.3894 13.6519 22.352 13.0963Z" />
<path d="M13.0936 22.3492C13.6494 21.3867 13.3197 20.1558 12.3572 19.6C11.3947 19.0442 10.1639 19.3738 9.60804 20.3363C9.0522 21.2988 9.38187 22.5297 10.3444 23.0855C11.3069 23.6414 12.5377 23.3117 13.0936 22.3492Z" />
<path d="M7.68906 32.9875C6.5789 32.9875 5.67656 33.8899 5.67656 35C5.67656 36.1102 6.5789 37.0125 7.68906 37.0125C8.80468 37.0125 9.70703 36.1102 9.70703 34.9946C9.70703 33.8899 8.80468 32.9875 7.68906 32.9875V32.9875Z" />
<path d="M10.3414 46.911C9.88026 47.1793 9.54422 47.6195 9.40687 48.135C9.26953 48.6506 9.34206 49.1996 9.6086 49.6618C9.74024 49.8914 9.91596 50.0927 10.1257 50.2542C10.3354 50.4157 10.5749 50.5341 10.8305 50.6027C11.0861 50.6713 11.3528 50.6887 11.6152 50.654C11.8776 50.6192 12.1305 50.5329 12.3594 50.4001C12.8226 50.1323 13.1606 49.6916 13.299 49.1747C13.4375 48.6579 13.365 48.1073 13.0977 47.6438C12.8293 47.1812 12.3882 46.8441 11.8713 46.7066C11.3544 46.5692 10.8041 46.6427 10.3414 46.911V46.911Z" />
<path d="M22.3508 56.9024C22.1218 56.7698 21.8689 56.6838 21.6066 56.6491C21.3443 56.6145 21.0777 56.632 20.8222 56.7006C20.5666 56.7692 20.3271 56.8875 20.1174 57.0488C19.9077 57.2101 19.7318 57.4113 19.6 57.6406C19.3347 58.1037 19.2634 58.6529 19.4017 59.1683C19.54 59.6838 19.8767 60.1235 20.3383 60.3914C20.5673 60.5238 20.8202 60.6096 21.0825 60.6442C21.3447 60.6787 21.6112 60.6611 21.8667 60.5926C22.1222 60.524 22.3617 60.4057 22.5714 60.2445C22.7812 60.0833 22.9571 59.8824 23.0891 59.6531C23.6469 58.6961 23.3133 57.4602 22.3508 56.9024Z" />
<path d="M34.9945 60.293C33.8789 60.293 32.9875 61.1953 32.982 62.3109C32.9875 63.4211 33.8844 64.3234 34.9945 64.3234C36.1047 64.3234 37.0125 63.4211 37.007 62.3109C37.0083 62.046 36.9572 61.7835 36.8566 61.5384C36.756 61.2934 36.6079 61.0706 36.4208 60.8831C36.2337 60.6955 36.0114 60.5468 35.7666 60.4455C35.5218 60.3442 35.2594 60.2924 34.9945 60.293V60.293Z" />
<path d="M47.6438 56.9078C47.4139 57.0392 47.2124 57.2149 47.0509 57.4247C46.8894 57.6346 46.7712 57.8744 46.703 58.1302C46.6349 58.386 46.6182 58.6529 46.6539 58.9152C46.6895 59.1776 46.7769 59.4302 46.9109 59.6586C47.043 59.8877 47.219 60.0886 47.4288 60.2497C47.6385 60.4108 47.8779 60.529 48.1334 60.5976C48.3888 60.6661 48.6553 60.6837 48.9175 60.6493C49.1798 60.6148 49.4326 60.5291 49.6617 60.3969C50.6242 59.8445 50.9578 58.6031 50.4 57.6461C50.1319 57.1832 49.6912 56.8455 49.1745 56.7071C48.6578 56.5687 48.1073 56.6409 47.6438 56.9078V56.9078Z" />
<path d="M59.6531 46.9109C59.4241 46.7786 59.1712 46.6927 58.9089 46.6582C58.6467 46.6237 58.3802 46.6412 58.1247 46.7098C57.8692 46.7783 57.6297 46.8966 57.42 47.0578C57.2103 47.219 57.0344 47.42 56.9023 47.6492C56.3445 48.6172 56.6727 49.8367 57.6406 50.4C57.8694 50.5325 58.1219 50.6187 58.384 50.6537C58.646 50.6886 58.9124 50.6715 59.1678 50.6035C59.4233 50.5354 59.6628 50.4177 59.8728 50.257C60.0827 50.0964 60.259 49.8959 60.3914 49.6672C60.9492 48.7047 60.6211 47.4633 59.6531 46.9109V46.9109Z" />
</svg>
