<svg width="70" height="70" viewBox="0 0 70 70" fill="none" xmlns="http://www.w3.org/2000/svg">
<path d="M32.3066 8.96875C32.4707 8.96875 32.6758 9.05078 32.8535 9.29688C32.0605 8.16211 33.7422 8.6543 33.8379 7.57422C34.7949 6.86328 34.4531 6.39844 34.7266 6.37109L35.0273 6.125C34.4395 6.34375 34.2344 6.38477 34.0703 6.38477H33.7969C33.5918 6.38477 33.25 6.42578 32.4434 6.67187C30.5977 6.80859 29.2715 8.80469 28.6426 8.85938C28 9.20117 28.0273 9.26953 28.1777 9.26953C28.2188 9.26953 28.2734 9.25586 28.3281 9.25586C28.3828 9.25586 28.4238 9.24219 28.4648 9.24219C28.6152 9.24219 28.5742 9.31055 27.6992 9.7207C27.9043 9.77539 26.168 10.541 26.1543 11.7441C26.0996 12.209 26.291 12.5234 26.6055 12.5234C26.8789 12.5234 27.2207 12.3184 27.5898 11.7988C28.8203 10.377 31.418 10.2402 32.5391 9.37891C31.8418 9.32422 31.9785 8.96875 32.3066 8.96875V8.96875ZM26.0586 9.44727C25.9355 9.44727 26.0996 9.29688 26.2773 9.14648C26.4687 8.99609 26.6875 8.8457 26.6875 8.8457L26.6738 8.85938C27.4121 8.57227 26.9609 8.50391 27.3574 8.3125H27.3301C27.248 8.3125 27.3984 8.20312 27.5352 8.08008C27.6719 7.9707 27.7949 7.84766 27.6719 7.84766C27.6035 7.84766 27.4258 7.88867 27.125 8.01172C27.2207 7.875 27.5898 7.7793 28.1094 7.49219C27.3574 7.73828 26.7695 7.88867 26.7012 7.88867C26.6465 7.88867 26.9609 7.7793 27.9043 7.49219C27.9453 7.49219 27.9863 7.50586 28.0137 7.50586C28.1094 7.50586 28.1504 7.47852 28.1367 7.45117C28.123 7.42383 28.0684 7.41016 27.9727 7.41016C26.6191 7.51953 25.6074 8.36719 25.9082 8.47656C26.0859 8.42187 26.209 8.39453 26.291 8.39453C26.4688 8.39453 26.3867 8.54492 26.0312 8.76367C26.1953 9.14648 23.2969 10.1309 22.9688 10.4863C23.1328 10.3906 23.2422 10.3633 23.2969 10.3633C23.5156 10.3633 23.2285 10.7871 22.9414 10.9922C23.1191 11.1563 23.2559 11.2109 23.3652 11.2109C23.6523 11.2109 23.7754 10.8145 24.0215 10.6914C24.0762 10.8008 24.1309 10.8555 24.1992 10.8555C24.4316 10.8555 24.7187 10.2813 24.9512 9.98047C25.0195 10.0488 25.1016 10.1035 25.2109 10.1035C25.4297 10.1035 25.7578 9.92578 26.2773 9.41992C26.168 9.43359 26.0859 9.44727 26.0586 9.44727V9.44727ZM22.9141 11.9629C22.4219 12.2637 22.1621 12.3867 22.0527 12.3867C21.8477 12.3867 22.1211 12.0039 22.3672 11.6074C22.6133 11.2246 22.832 10.8418 22.5176 10.8418C22.3672 10.8418 22.0937 10.9238 21.6562 11.1426C20.4668 11.9355 18.457 14.123 17.5684 14.123H17.4863C18.9219 13.0703 18.498 11.0059 20.5078 10.4727C22.4902 9.33789 23.8438 9.69336 25.6074 8.39453C25.0879 8.6543 24.3223 8.94141 24.1445 8.94141C24.0352 8.94141 24.1992 8.80469 24.9102 8.46289C24.8418 8.47656 24.7871 8.49023 24.7461 8.49023C24.2676 8.49023 27.8906 7.19141 28.0684 7.16406C26.5781 7.36914 24.1719 8.61328 23.8437 8.61328C23.8027 8.61328 23.8027 8.59961 23.8027 8.57227C23.8574 8.53125 23.8574 8.50391 23.8027 8.50391C23.625 8.50391 22.8867 8.75 22.1348 8.99609C21.3965 9.24219 20.6445 9.50195 20.4805 9.50195C20.4258 9.50195 20.4258 9.47461 20.5078 9.41992C14.0547 13.084 8.66797 19.2637 6.98633 26.5918C7.68359 28.1914 7.20508 31.2402 8.35352 32.1289C9.66602 33.2363 7.23242 36.4492 7.875 38.4316C8.53125 42.0137 11.3613 44.4609 11.6621 48.125C12.1816 50.6406 14.082 53.7168 14.875 55.3164C15.4766 55.918 17.1309 57.6543 17.418 57.6543C17.5273 57.6543 17.459 57.3945 17.0215 56.6973C16.748 55.918 15.1621 53.8809 15.9277 53.8809C15.9688 53.8809 16.0098 53.8809 16.0645 53.8945C15.1211 52.9375 18.1563 53.1973 16.0371 51.8984C15.791 51.5977 15.7363 51.502 15.791 51.502C15.8594 51.502 16.0508 51.6113 16.2695 51.7207C16.502 51.8301 16.7754 51.9395 16.9941 51.9395C17.3359 51.9395 17.5684 51.707 17.4316 50.8594C17.4863 50.8867 17.541 50.8867 17.582 50.8867C17.9375 50.8867 17.8145 50.1895 17.8418 49.4922C17.8691 48.7949 18.0469 48.0977 19.0039 48.0977C19.1133 48.0977 19.2363 48.1113 19.3594 48.125C21.5742 46.9219 19.6465 43.5996 22.1895 42.3828C22.0938 39.6211 18.3887 39.4844 16.9941 38.3633C16.7617 38.5 16.543 38.541 16.3242 38.541C16.0781 38.541 15.8594 38.4863 15.668 38.418C15.4766 38.3633 15.2988 38.2949 15.1758 38.2949C15.1484 38.2949 15.1211 38.2949 15.0938 38.3086C17.4727 37.6797 15.7363 34.3711 13.7676 34.3711H13.6309C13.4805 32.9355 12.7422 33.4824 12.6602 32.293C12.5371 32.3613 12.4141 32.3887 12.291 32.3887C11.9629 32.3887 11.6621 32.1563 11.4023 31.9375C11.1426 31.7051 10.9238 31.4863 10.7324 31.4863C10.582 31.4863 10.4453 31.6367 10.3223 32.0742C10.459 31.4043 10.418 31.1855 10.2812 31.1855C10.1445 31.1855 9.89844 31.418 9.625 31.6504C9.36523 31.8828 9.06445 32.1152 8.83203 32.1152H8.76367C7.16406 30.9805 8.77734 28.9707 7.92969 27.4258C8.47656 26.8379 8.69531 25.8398 8.44922 25.8398C8.32617 25.8398 8.08008 26.0859 7.69727 26.7559C7.15039 25.3613 8.59961 22.2031 9.83008 22.0254C9.87109 22.0254 9.89844 22.0117 9.93945 22.0117C10.1582 22.0117 10.377 22.1211 10.5684 22.3535C10.6777 22.9961 10.4043 24.3496 10.5137 24.3496C10.5684 24.3496 10.6777 24.0762 10.9512 23.3652C11.3066 21.7383 13.7949 20.5625 14.0547 19.5645C14.0684 19.5781 14.0684 19.5781 14.082 19.5781C14.3691 19.5781 16.2148 17.9512 17.0215 17.7734C17.3359 17.459 17.5547 17.3496 17.7188 17.3496C17.8965 17.3496 17.9922 17.4863 18.0605 17.6094C18.1289 17.7461 18.1836 17.8691 18.252 17.8691C18.3066 17.8691 18.375 17.7871 18.498 17.5547C18.0742 16.7207 19.168 15.9277 18.8672 15.9277C18.7578 15.9277 18.4297 16.0371 17.7598 16.3105C17.6504 16.3652 17.5957 16.3789 17.5684 16.3789C17.4863 16.3789 17.8145 16.1602 18.293 15.9414C18.7715 15.7227 19.373 15.5039 19.8789 15.5039C20.125 15.5039 20.3437 15.5586 20.5078 15.6953C22.627 15.1895 21.4648 14.4922 21.5742 14.4922H21.6016C22.2031 14.1367 22.0254 12.7969 22.9141 11.9629V11.9629ZM13.4395 17.5547C13.4121 17.5547 13.5352 17.377 13.9453 16.8711C14.793 16.2422 15.4766 15.8184 14.6973 15.4082C15.0391 15.2578 15.3672 15.0801 15.6816 14.8887C15.668 15.5586 15.1074 17.1855 14.8066 17.1855C14.7383 17.1855 14.6699 17.0898 14.6426 16.8848C14.8203 16.5703 14.834 16.4473 14.7656 16.4473C14.6562 16.4473 14.3418 16.7207 14.041 17.0078C13.7402 17.2676 13.4668 17.5547 13.4395 17.5547V17.5547ZM14.2188 17.9238C13.8496 17.9238 13.918 17.6914 15.0527 17.459C15.5449 17.3906 15.1621 17.418 15.75 17.2813C15.1758 17.7461 14.5332 17.9238 14.2188 17.9238V17.9238ZM35.4785 16.543C35.6426 16.5156 35.7656 16.5156 35.8613 16.5156C36.2578 16.5156 36.0801 16.6797 35.8477 16.8437C35.6152 17.0078 35.3281 17.1719 35.4922 17.1719C35.5879 17.1719 35.8477 17.1172 36.3809 16.9668C39.0742 16.7754 35.3281 14.4922 35.9297 13.7266L35.7656 13.6719C34.6582 15.0801 36.5039 15.1074 35.4785 16.543V16.543ZM34.3574 16.5977C34.5488 16.5977 34.7949 16.3789 35.0547 15.7637C35.4102 15.3398 35.2598 15.2852 34.877 15.0801C33.8242 15.3535 33.9199 16.5977 34.3574 16.5977ZM43.791 20.9316C43.75 20.9316 43.7227 20.9453 43.6953 20.959C43.8047 20.9863 43.9141 21.0137 44.0234 21.0137C43.9141 20.959 43.8457 20.9316 43.791 20.9316ZM62.1523 24.3359C62.3848 24.8418 62.5078 25.0469 62.5215 25.0469C62.6172 25.0469 60.7988 20.6172 60.0469 19.8242C56.123 13.3711 49.6699 8.43555 42.3145 6.58984H42.3008C42.1094 6.58984 42.3281 6.68555 42.5879 6.78125C42.8477 6.87695 43.1621 6.97266 43.1621 6.97266C43.1621 6.97266 42.957 6.9043 42.3281 6.72656C41.6309 6.52148 40.9199 6.37109 40.1953 6.31641C40.0723 6.35742 43.1895 7.58789 45.2813 8.23047C44.584 8.01172 43.8594 7.82031 43.6816 7.82031C43.5586 7.82031 43.6816 7.90234 44.1875 8.12109C43.5723 7.94336 43.3125 7.86133 43.2852 7.86133C43.2441 7.86133 44.1055 8.14844 44.9121 8.43555C45.7324 8.72266 46.5117 9.00977 46.293 9.00977C46.2383 9.00977 46.0879 8.98242 45.8555 8.94141C46.5527 9.32422 46.7988 9.47461 46.7578 9.47461C46.6895 9.47461 45.8281 9.06445 44.9395 8.6543C44.0645 8.24414 43.1758 7.83398 43.0527 7.83398C42.9844 7.83398 43.1621 7.9707 43.7637 8.32617C44.584 8.68164 45.4043 9.03711 45.1719 9.03711C45.0625 9.03711 44.748 8.96875 44.1328 8.79102C45.5 9.48828 43.1621 9.21484 43.9551 10.1582C43.5176 9.74805 43.3398 9.61133 43.2988 9.61133C43.2578 9.61133 43.3672 9.77539 43.4766 9.93945C43.5859 10.1035 43.668 10.2676 43.5723 10.2676H43.5449C44.502 11.3066 42.875 10.377 44.0371 11.3066C43.1621 10.9102 41.6719 10.2539 42.3418 10.2539C42.5059 10.2539 42.8203 10.2949 43.3125 10.4043C42.4238 9.36523 39.9082 9.32422 39.8535 9.20117C39.2246 9.24219 39.2109 9.7207 39.3203 10.5957C39.3066 11.9766 37.9531 12.0039 38.1309 12.7969C38.1309 12.7832 38.1445 12.7832 38.1445 12.7832C38.1719 12.7832 38.1855 13.0566 38.2676 13.3437C38.3633 13.6172 38.5273 13.9043 38.8828 13.9043C39.0742 13.9043 39.3203 13.8223 39.6211 13.6172C40.0449 14.3828 40.4277 14.6562 40.7285 14.6562C41.1797 14.6562 41.4531 14.041 41.4258 13.4805C40.9336 13.207 40.291 10.9375 41.002 10.9375C41.1113 10.9375 41.248 10.9922 41.4258 11.1152C40.3184 13.8359 45.8008 12.0176 42.6973 13.2617C43.3945 14.1777 42.2598 14.1367 42.5879 15.2441C42.0547 15.3945 41.4668 15.5312 40.9473 15.5312C40.1816 15.5312 39.5938 15.2031 39.6621 14.0547C38.7051 14.5605 40.6191 16.2695 38.7188 16.2695H38.6094C37.6934 17.9512 34.2617 17.377 36.9551 19.1543C37.1055 19.9336 36.6133 20.0703 35.9844 20.0703C35.8203 20.0703 35.6426 20.0566 35.4648 20.043C35.2871 20.0293 35.1094 20.0293 34.9453 20.0293C34.2344 20.0293 33.7285 20.207 34.166 21.3145C33.8516 22.4629 34.5898 22.9688 35.4922 22.9688C36.5859 22.9688 37.9258 22.2578 38.0215 21.082C38.6094 20.1934 39.3613 19.8242 40.1406 19.8242C41.3711 19.8242 42.6699 20.7539 43.5176 21.9023C43.5859 22.0117 43.6406 22.0527 43.668 22.0527C43.7363 22.0527 43.668 21.7793 43.6406 21.5059C43.6133 21.2871 43.6133 21.0684 43.6953 21C42.4785 20.6582 41.5488 19.1816 41.959 19.1816C42.0957 19.1816 42.3828 19.3457 42.8477 19.7832H42.916C43.6816 19.7832 44.2832 20.3848 44.748 20.9863C45.2266 21.5879 45.582 22.1895 45.8965 22.1895C46.0195 22.1895 46.1426 22.0801 46.252 21.834C46.1973 21.752 46.0605 21.5195 45.9922 21.2871C45.9102 21 45.9102 20.7129 46.2793 20.7129C46.4297 20.7129 46.6348 20.7676 46.9219 20.877C47.8516 20.6309 46.334 18.2109 47.5645 18.2109C47.6875 18.2109 47.8379 18.2383 48.0293 18.293C48.0156 18.7168 48.207 18.8672 48.3848 18.8672C48.7402 18.8672 49.0957 18.3613 48.2344 18.2109C48.5625 17.8965 48.7539 17.7734 48.8906 17.7734C49.3691 17.7734 48.9863 19.3594 50.6406 19.3594C51.2012 20.6855 45.7734 19.4551 47.5098 21.998C47.9063 22.2852 48.3984 22.3398 48.877 22.3398C49.0273 22.3398 49.1641 22.3398 49.3008 22.3262C49.4375 22.3262 49.5742 22.3125 49.6973 22.3125C50.5449 22.3125 51.1465 22.5176 50.7773 24.2676C50.3262 24.5957 49.8203 24.7051 49.3008 24.7051C48.8359 24.7051 48.3711 24.623 47.9199 24.541C47.4688 24.459 47.0313 24.377 46.6348 24.377C46.0195 24.377 45.5273 24.582 45.2266 25.293C43.627 24.6367 41.5215 24.6094 41.7266 22.627C38.9375 23.0234 36.0254 22.8184 33.9746 24.5273C33.8516 27.0293 29.5586 27.8359 30.5977 30.6797C29.3535 33.3047 32.1016 36.9824 34.9043 36.9824C35 36.9824 35.1094 36.9824 35.2051 36.9687C36.7363 36.9551 38.2812 36.2715 39.6348 36.2715C40.332 36.2715 40.9609 36.4492 41.5078 36.9961C41.6309 36.9824 41.7402 36.9687 41.8359 36.9687C43.9277 36.9687 41.166 40.291 43.668 40.8516C45.9375 43.2031 42.2734 45.623 44.0645 47.8789C44.2559 49.6426 45.1309 51.1191 45.1309 52.8418C45.3633 52.8691 45.582 52.8828 45.8145 52.8828C48.6992 52.8828 50.5039 50.3672 52.1992 48.4668C51.6797 45.623 56.2324 45.0625 54.6738 41.877C53.9492 38.3906 58.1055 36.3262 57.873 32.8398C57.9141 32.3477 57.7773 32.1973 57.5723 32.1973C57.3672 32.1973 57.0664 32.3477 56.7793 32.4844C56.4785 32.6348 56.1504 32.7715 55.8906 32.7715C55.5488 32.7715 55.2891 32.5391 55.2617 31.7734C53.252 29.9004 52.3359 27.3574 50.4629 25.293C52.8965 26.4688 54.2773 29.1211 55.3984 31.5273C55.4941 31.5547 55.5898 31.5684 55.6992 31.5684C57.6816 31.5684 60.4434 26.8242 57.4355 25.6758C57.2715 26.127 57.0527 26.291 56.793 26.291C56.3418 26.291 55.8223 25.7441 55.4531 25.2109C55.084 24.6641 54.8926 24.1172 55.0977 24.1172C55.2344 24.1172 55.5352 24.3359 56.0547 24.9102C56.6426 25.2793 57.2168 25.375 57.8184 25.375C58.4062 25.375 59.0078 25.2793 59.6367 25.2246C60.4297 25.5391 60.7715 26.5508 61.0176 26.5508C61.0586 26.5508 61.1133 26.5098 61.1543 26.4141C61.7832 27.918 62.5078 30.5977 63.1641 31.3223C62.8223 29.0254 62.7402 26.5918 62.1523 24.3359V24.3359ZM54.5234 21.1777C52.9785 20.7812 52.4727 18.8672 51.2559 17.7598C51.2422 17.459 51.6934 17.5137 51.584 17.0078C53.2246 17.5137 52.6914 18.0195 52.541 18.1152C53.1426 19.1133 54.8242 19.7969 54.5234 21.1777ZM33.291 10.7734C31.8008 11.2109 31.5957 10.7324 31.8555 11.6484C31.9648 11.7305 32.1699 11.7578 32.375 11.7578C33.0996 11.7715 34.084 11.3477 33.291 10.7734ZM55.1797 48.4395C57.1348 46.7852 57.3809 44.8164 57.4766 42.8203C56.6016 44.5293 54.0039 46.416 55.1797 48.4395ZM46.2793 21.7793C46.2656 21.793 46.2656 21.793 46.2656 21.8066C46.2793 21.834 46.293 21.834 46.293 21.834C46.293 21.834 46.293 21.8203 46.2793 21.7793V21.7793ZM35 0C15.668 0 0 15.668 0 35C0 54.332 15.668 70 35 70C54.332 70 70 54.332 70 35C70 15.668 54.332 0 35 0ZM35 67.3066C17.1582 67.3066 2.69336 52.8418 2.69336 35C2.69336 17.1582 17.1582 2.69336 35 2.69336C52.8418 2.69336 67.3066 17.1582 67.3066 35C67.3066 52.8418 52.8418 67.3066 35 67.3066Z" />
</svg>
