<svg width="70" height="70" viewBox="0 0 70 70" fill="none" xmlns="http://www.w3.org/2000/svg">
<path d="M28.5753 8.75C26.6591 8.75 24.9769 9.73438 23.7891 11.0053C22.6013 12.2784 21.7459 13.8688 20.9869 15.5859C19.8253 18.2328 18.9963 21.175 18.2525 23.9269C15.8769 24.6181 13.86 25.48 12.2369 26.5234C10.3403 27.7463 8.75 29.4372 8.75 31.7188C8.75 33.7006 9.96406 35.2909 11.4844 36.435C12.7838 37.4106 14.3806 38.2222 16.2706 38.8959C16.38 39.3991 16.5441 39.9131 16.7475 40.4009C14.9034 41.4422 11.9788 43.4591 9.16125 47.3047L7.86188 49.1509L9.70813 50.4481L16.8831 55.37L13.9475 61.25H56.0569L53.1169 55.37L60.2962 50.4481L62.1403 49.1509L60.8431 47.3047C58.0213 43.4591 55.1009 41.4422 53.2525 40.4009C53.4603 39.9131 53.6222 39.4013 53.7337 38.8959C55.6216 38.2222 57.2184 37.4084 58.5178 36.435C60.0381 35.2909 61.2522 33.7006 61.2522 31.7188C61.2522 29.4372 59.6619 27.7463 57.7653 26.5234C56.1422 25.48 54.1253 24.6181 51.7497 23.9247C50.9294 21.0722 50.0238 18.0819 48.8797 15.4503C48.1359 13.7484 47.3156 12.1844 46.1453 10.9375C44.975 9.69063 43.3081 8.75 41.4269 8.75C40.1538 8.75 39.1891 9.1 38.1456 9.36469C37.1044 9.62938 36.0522 9.84375 35.0022 9.84375C32.9022 9.84375 31.1391 8.75 28.5753 8.75ZM28.5753 13.125C29.0281 13.125 31.7188 14.2188 35 14.2188C36.6406 14.2188 38.1019 13.8862 39.2394 13.6041C40.3747 13.3197 41.2388 13.125 41.4269 13.125C41.93 13.125 42.3063 13.2869 42.9297 13.9453C43.5531 14.6016 44.2881 15.7916 44.9116 17.2266C46.0994 19.9434 47.005 23.6534 47.9894 27.0703C47.9894 27.0616 48.1075 26.9675 47.7838 27.1381C47.2369 27.4378 46.0906 27.8228 44.7059 28.0263C41.93 28.4463 38.1434 28.4375 35 28.4375C31.8719 28.4375 28.0788 28.3938 25.2919 27.9584C23.9006 27.7463 22.7719 27.3678 22.2163 27.0703C22.0456 26.9762 21.9866 27.0112 21.9428 27.0025V26.9347C21.9516 26.9172 21.9341 26.8822 21.9428 26.8647L22.0106 26.7969C22.1743 26.5027 22.2686 26.175 22.2863 25.8388V25.7731C23.0716 22.8659 23.9509 19.7903 25.0206 17.3622C25.6594 15.9031 26.3528 14.7153 27.0025 14.0153C27.6522 13.3131 28.0963 13.125 28.5753 13.125ZM17.9091 28.6431C18.4056 29.6691 19.2784 30.4894 20.1666 30.9662C21.5009 31.675 23.0278 32.0097 24.6772 32.2656C27.9759 32.7775 31.8391 32.8125 35 32.8125C38.1456 32.8125 42.0153 32.83 45.3228 32.3334C46.9809 32.0863 48.4925 31.7625 49.8334 31.0341C50.7303 30.5484 51.6031 29.6844 52.0909 28.6431C53.4406 29.1222 54.5759 29.6341 55.3722 30.1459C56.6453 30.9662 56.875 31.5744 56.875 31.7188C56.875 31.8478 56.7656 32.2656 55.8491 32.9503C54.9347 33.6328 53.3641 34.4269 51.3384 35.0678C47.2872 36.3584 41.4597 37.1875 35 37.1875C28.5403 37.1875 22.7128 36.3584 18.6616 35.0678C16.6359 34.4269 15.0653 33.6328 14.1509 32.9503C13.2344 32.2656 13.125 31.8478 13.125 31.7188C13.125 31.5744 13.2956 31.0275 14.56 30.2138C15.3563 29.7019 16.5266 29.1462 17.9113 28.6431H17.9091ZM23.5834 40.6066C24.3009 40.7247 25.0119 40.9216 25.7709 41.0156C26.0553 42.9384 27.5494 44.6294 29.9403 44.7759C31.7866 44.8853 33.8625 44.0147 34.0441 41.5625H35.9581C36.1375 44.0147 38.2113 44.8875 40.0597 44.7759C42.4506 44.6294 43.9469 42.9384 44.2291 41.0156C44.9881 40.9216 45.6991 40.7247 46.4166 40.6044L46.2109 41.9716C45.535 45.57 43.9294 48.9016 41.9038 51.2028C39.8781 53.4975 37.5047 54.7203 35 54.6875C32.4275 54.6525 30.1044 53.4144 28.0963 51.1328C26.0881 48.8512 24.5088 45.5875 23.7891 41.9716L23.5834 40.6066ZM50.3125 43.75C51.1241 44.2291 53.2613 45.6312 55.7134 48.3306L49.0809 52.9091L47.5103 53.9372L48.3306 55.6434L48.9453 56.875H42.0416C43.2047 56.079 44.2611 55.1372 45.185 54.0728C47.5956 51.3384 49.21 47.7575 50.1069 43.8856C50.1834 43.8441 50.2447 43.7938 50.3125 43.75ZM19.6197 43.8178C19.705 43.8703 19.8078 43.9053 19.8931 43.9556C20.8338 47.775 22.4394 51.3122 24.815 54.0028C25.7972 55.1228 26.9413 56.0809 28.1641 56.875H21.0547L21.6694 55.6434L22.4897 53.9372L20.9169 52.9091L14.2888 48.3306C16.6031 45.7756 18.7141 44.3647 19.6197 43.8178Z" />
</svg>
