<svg width="70" height="70" viewBox="0 0 70 70" fill="none" xmlns="http://www.w3.org/2000/svg">
<path d="M56.875 35C56.872 31.5651 56.0611 28.1789 54.5079 25.1152C52.9546 22.0515 50.7026 19.396 47.9336 17.3633L46.2383 7.95707C46.0524 6.94823 45.5178 6.0368 44.7281 5.38205C43.9385 4.7273 42.9438 4.37087 41.918 4.37504H28.082C27.0562 4.37087 26.0616 4.7273 25.2719 5.38205C24.4822 6.0368 23.9476 6.94823 23.7617 7.95707L22.0664 17.3633C19.2971 19.3952 17.0453 22.0507 15.4931 25.1147C13.9409 28.1788 13.1321 31.5653 13.1321 35C13.1321 38.4348 13.9409 41.8213 15.4931 44.8853C17.0453 47.9494 19.2971 50.6048 22.0664 52.6368L23.7617 62.043C23.9476 63.0518 24.4822 63.9633 25.2719 64.618C26.0616 65.2728 27.0562 65.6292 28.082 65.625H41.918C42.9438 65.6292 43.9385 65.2728 44.7281 64.618C45.5178 63.9633 46.0524 63.0518 46.2383 62.043L47.9336 52.6368C50.7026 50.6041 52.9546 47.9486 54.5079 44.8849C56.0611 41.8211 56.872 38.435 56.875 35V35ZM28.082 8.75004H41.918L42.9844 14.6563C37.8574 12.6138 32.1426 12.6138 27.0156 14.6563L28.082 8.75004ZM17.5 35C17.5 31.5389 18.5264 28.1554 20.4493 25.2776C22.3722 22.3997 25.1053 20.1567 28.303 18.8321C31.5007 17.5076 35.0194 17.1611 38.4141 17.8363C41.8087 18.5115 44.927 20.1782 47.3744 22.6257C49.8218 25.0731 51.4885 28.1913 52.1637 31.586C52.839 34.9806 52.4924 38.4993 51.1679 41.697C49.8434 44.8947 47.6003 47.6278 44.7225 49.5508C41.8446 51.4737 38.4612 52.5 35 52.5C30.3609 52.4928 25.9139 50.6467 22.6336 47.3664C19.3533 44.0861 17.5072 39.6391 17.5 35V35ZM41.918 61.25H28.082L27.0156 55.3438C32.1426 57.3862 37.8574 57.3862 42.9844 55.3438L41.918 61.25ZM32.8125 35V24.0625C32.8125 23.4824 33.043 22.926 33.4532 22.5157C33.8634 22.1055 34.4198 21.875 35 21.875C35.5802 21.875 36.1366 22.1055 36.5468 22.5157C36.957 22.926 37.1875 23.4824 37.1875 24.0625V32.8125H45.9375C46.5177 32.8125 47.0741 33.043 47.4843 33.4532C47.8945 33.8635 48.125 34.4199 48.125 35C48.125 35.5802 47.8945 36.1366 47.4843 36.5468C47.0741 36.9571 46.5177 37.1875 45.9375 37.1875H35C34.4198 37.1875 33.8634 36.9571 33.4532 36.5468C33.043 36.1366 32.8125 35.5802 32.8125 35Z" />
</svg>
